<?xml version="1.0" encoding="UTF-8"?>
<svg id="Layer_2" data-name="Layer 2" xmlns="http://www.w3.org/2000/svg" viewBox="0 0 278.88 318.64">
  <defs>
    <style>
      .cls-1 {
        stroke-width: 0px;
      }
    </style>
  </defs>
  <g id="Layer_1-2" data-name="Layer 1">
    <path class="cls-1" d="M246.72,16.06c10.96-4.87,21.8-9.97,32.16-16.06-11.5,3.5-22.59,8.03-33.59,12.8-.07.03-.13.06-.2.09l-.03-.06L50.31,97.53v58.99s89.93-39.1,89.93-39.1v110.66c0,4.46-1.51,8.78-4.29,12.26l-.05.06c-8.29,10.41-20.26,17.77-33.95,20.08-3.02.52-6.14.78-9.31.78-5.7,0-11.2-.86-16.37-2.47-7.13-2.21-11.78-8.98-11.71-16.45,0-.08,0-.16,0-.24,0-1.5-.02-3-.04-4.49,10.73-4.78,21.33-9.79,31.48-15.76-10.8,3.29-21.24,7.48-31.58,11.94h0s-1.03.44-1.03.44c-.33.14-.66.28-.98.42-.07.03-.13.06-.2.09l-12.88,5.58L.04,262.15c-.37,3.3,1.93,7.82,3.89,10.86,15.11,20.79,29.12,29.99,50.69,38.14l.05.02c12.55,4.84,26.18,7.48,40.44,7.48,11.58,0,22.74-1.75,33.25-4.98,4.06-1.25,8.02-2.73,11.88-4.42,3.05-1.33,8.92-4.38,8.92-4.38l.09-.07c18.04-9.5,30.01-18.86,41.64-35.82,5.44-7.93,7.82-21.18,8-25.4.18-4.22,4.07-80.55,4.07-80.55.2-4.09.4-8.67.59-12.8,1.95-40.18,37.6-77.59,65.53-89.05l-22.39-45.08s.03-.01.04-.02Z"/>
  </g>
</svg>