<?xml version="1.0" encoding="UTF-8"?>
<svg id="Layer_2" data-name="Layer 2" xmlns="http://www.w3.org/2000/svg" viewBox="0 0 358.32 340.78">
  <defs>
    <style>
      .cls-1 {
        fill: #ae2429;
      }

      .cls-2 {
        fill: #b92025;
      }
    </style>
  </defs>
  <g id="Layer_1-2" data-name="Layer 1">
    <path class="cls-2" d="M358.32,130.16l-128.92-9.56L179.16,0l-50.23,120.6L0,130.16l97.9,85.97-29.46,124.64,110.73-65.59,110.73,65.59-29.46-124.64,97.88-85.97ZM179.17,189.73h-.01s.01-.01.01-.01h.01s-.01.01-.01.01Z"/>
    <g>
      <polygon class="cls-1" points="289.89 340.78 179.17 189.73 179.18 189.73 260.43 216.13 289.89 340.78"/>
      <polygon class="cls-1" points="358.32 130.16 179.18 189.72 229.4 120.6 358.32 130.16"/>
      <polygon class="cls-2" points="229.4 120.6 179.18 189.72 179.17 189.72 179.16 0 229.4 120.6"/>
      <polygon class="cls-1" points="179.16 0 179.17 189.72 179.16 189.72 128.93 120.6 179.16 0"/>
      <polygon class="cls-2" points="179.16 189.72 0 130.16 128.93 120.6 179.16 189.72"/>
      <polygon class="cls-1" points="179.16 189.72 179.16 189.73 97.9 216.13 0 130.16 179.16 189.72"/>
      <polygon class="cls-1" points="68.44 340.78 179.17 189.73 179.17 275.18 68.44 340.78"/>
      <polygon class="cls-2" points="358.32 130.16 260.43 216.13 179.18 189.73 179.18 189.72 358.32 130.16"/>
      <polygon class="cls-2" points="289.89 340.78 179.17 275.18 179.17 189.73 289.89 340.78"/>
      <polygon class="cls-2" points="179.17 189.73 68.44 340.78 97.9 216.13 179.16 189.73 179.17 189.73"/>
    </g>
  </g>
</svg>